<svg width="512" height="512" viewBox="0 0 512 512" fill="none" xmlns="http://www.w3.org/2000/svg">
<defs>
<linearGradient id="shield_grad" x1="0%" y1="0%" x2="100%" y2="100%">
<stop offset="0%" stop-color="#4F46E5" />
<stop offset="100%" stop-color="#2563EB" />
</linearGradient>
<filter id="glow" x="-20%" y="-20%" width="140%" height="140%">
<feGaussianBlur stdDeviation="15" result="blur" />
<feComposite in="SourceGraphic" in2="blur" operator="over" />
</filter>
</defs>
​<!-- Outer Shield Shape -->
​<path d="M256 48C160 48 80 88 80 88V240C80 346 156 438 256 464C356 438 432 346 432 240V88C432 88 352 48 256 48Z"
fill="url(#shield_grad)" />
​<!-- Inner Detail / Logo Mark -->
​<path d="M256 140V370" stroke="white" stroke-width="24" stroke-linecap="round" opacity="0.2" />
​<path d="M180 180C180 180 210 160 256 160C302 160 332 180 332 180V240L256 270L180 240V180Z"
fill="white" fill-opacity="0.15" />
​<!-- Central Shield Bolt -->
​<path d="M256 120L280 220H320L256 392L232 292H192L256 120Z"
fill="white" filter="url(#glow)" />
​<!-- Bottom Accent -->
​<path d="M256 464C180 440 110 360 95 260" stroke="white" stroke-width="8" stroke-linecap="round" opacity="0.3" />
</svg>